<svg width="1033" height="198" viewBox="0 0 1033 198" fill="none" xmlns="http://www.w3.org/2000/svg">
<path d="M168.925 193.88H135.651L33.274 33.8635V193.88H0V6.55H55.6095L135.651 193.88V6.55H168.925V193.88ZM271.61 16.768C271.61 26.0287 264.103 33.536 254.842 33.536H254.449C245.188 33.536 237.681 26.0287 237.681 16.768C237.681 7.50729 245.188 0 254.449 0H254.842C264.103 0 271.61 7.50729 271.61 16.768ZM271.086 193.88H238.205V49.4525H271.086V193.88ZM480.494 49.4525L430.255 193.88H382.506L332.791 49.4525H367.179L406.806 173.313L446.892 49.4525H480.494ZM533.313 101.067C533.313 92.5515 534.885 84.8662 538.029 78.0105C541.173 71.1548 545.649 65.3253 551.457 60.522C557.308 55.675 564.404 51.9633 572.744 49.387C581.128 46.8107 590.517 45.5225 600.909 45.5225C611.782 45.5225 621.498 46.9417 630.057 49.78C638.659 52.6183 645.93 56.723 651.868 62.094C657.851 67.465 662.414 74.0368 665.558 81.8095C668.702 89.5822 670.274 98.381 670.274 108.206V193.88H637.393V156.021C635.69 162.484 633.114 168.313 629.664 173.51C626.258 178.662 622.088 183.051 617.153 186.675C612.219 190.256 606.608 193.007 600.32 194.928C594.076 196.849 587.285 197.81 579.949 197.81C572.308 197.81 565.365 196.762 559.12 194.666C552.876 192.614 547.527 189.71 543.073 185.955C538.619 182.199 535.169 177.68 532.724 172.396C530.278 167.069 529.056 161.174 529.056 154.711C529.056 147.986 530.388 141.96 533.051 136.633C535.715 131.306 539.536 126.786 544.514 123.074C549.536 119.363 555.649 116.525 562.854 114.559C570.059 112.551 578.181 111.546 587.22 111.546H637.393V108.206C637.393 102.748 636.541 97.857 634.838 93.534C633.135 89.1673 630.668 85.4557 627.437 82.399C624.249 79.3423 620.363 77.0062 615.778 75.3905C611.193 73.7748 606.018 72.967 600.254 72.967C594.403 72.967 589.316 73.622 584.993 74.932C580.714 76.242 577.177 78.1197 574.382 80.565C571.587 83.0103 569.513 85.9797 568.159 89.473C566.806 92.9227 566.129 96.7872 566.129 101.067H533.313ZM589.054 134.603C580.102 134.603 573.312 136.109 568.683 139.122C564.098 142.135 561.806 146.589 561.806 152.484C561.806 158.685 564.339 163.444 569.404 166.763C574.469 170.038 581.74 171.676 591.215 171.676C597.94 171.676 604.119 170.868 609.752 169.252C615.429 167.593 620.297 165.3 624.358 162.375C628.463 159.449 631.651 155.977 633.921 151.96C636.236 147.899 637.393 143.489 637.393 138.729V134.603H589.054ZM771.209 193.88H738.328V49.4525H771.209V97.5295C772.694 90.0625 774.856 83.3597 777.694 77.421C780.576 71.4823 784.157 66.4388 788.436 62.2905C792.759 58.1422 797.802 54.9763 803.566 52.793C809.374 50.566 815.946 49.4525 823.282 49.4525H830.88V80.4995H820.072C810.771 80.4995 802.999 81.4165 796.754 83.2505C790.51 85.0408 785.488 87.77 781.689 91.438C777.89 95.106 775.183 99.7347 773.567 105.324C771.995 110.913 771.209 117.507 771.209 125.105V193.88ZM888.332 121.634C888.332 110.149 890.056 99.7347 893.506 90.39C896.999 81.0453 901.912 73.0543 908.244 66.417C914.575 59.736 922.151 54.5833 930.972 50.959C939.793 47.3347 949.552 45.5225 960.251 45.5225C970.949 45.5225 980.708 47.3347 989.529 50.959C998.35 54.5833 1005.93 59.736 1012.26 66.417C1018.59 73.0543 1023.48 81.0453 1026.93 90.39C1030.42 99.7347 1032.17 110.149 1032.17 121.634C1032.17 129.275 1031.38 136.458 1029.81 143.183C1028.24 149.908 1025.97 156.108 1023 161.785C1020.07 167.418 1016.47 172.462 1012.19 176.916C1007.96 181.37 1003.17 185.147 997.848 188.247C992.52 191.347 986.691 193.705 980.359 195.321C974.071 196.98 967.368 197.81 960.251 197.81C953.133 197.81 946.408 196.98 940.077 195.321C933.745 193.705 927.915 191.347 922.588 188.247C917.261 185.147 912.479 181.37 908.244 176.916C904.008 172.462 900.405 167.418 897.436 161.785C894.51 156.108 892.262 149.908 890.69 143.183C889.118 136.458 888.332 129.275 888.332 121.634ZM921.344 121.634C921.344 129.013 922.239 135.629 924.029 141.48C925.819 147.288 928.374 152.222 931.693 156.283C935.055 160.3 939.138 163.379 943.941 165.519C948.788 167.658 954.246 168.728 960.316 168.728C966.386 168.728 971.822 167.658 976.626 165.519C981.429 163.379 985.49 160.3 988.809 156.283C992.171 152.222 994.725 147.288 996.472 141.48C998.262 135.629 999.158 129.013 999.158 121.634C999.158 114.254 998.262 107.66 996.472 101.852C994.725 96.0012 992.171 91.0668 988.809 87.0495C985.49 83.0322 981.429 79.9537 976.626 77.814C971.822 75.6743 966.386 74.6045 960.316 74.6045C954.246 74.6045 948.788 75.6743 943.941 77.814C939.138 79.9537 935.055 83.054 931.693 87.115C928.374 91.1323 925.819 96.0448 924.029 101.852C922.239 107.66 921.344 114.254 921.344 121.634Z" fill="url(#paint0_linear_8260_1296)"/>
<defs>
<linearGradient id="paint0_linear_8260_1296" x1="516.085" y1="0" x2="516.085" y2="197.81" gradientUnits="userSpaceOnUse">
<stop/>
<stop offset="1" stop-color="#645BFF"/>
</linearGradient>
</defs>
</svg>
