<svg width="24" height="24" viewBox="0 0 24 24" fill="none" xmlns="http://www.w3.org/2000/svg">
<path d="M11.9998 1.99902C10.6866 1.99902 9.38627 2.25768 8.17301 2.76023C6.95976 3.26278 5.85736 3.99937 4.92878 4.92796C3.05342 6.80332 1.99985 9.34686 1.99985 11.999C1.99985 14.6512 3.05342 17.1947 4.92878 19.0701C5.85736 19.9987 6.95976 20.7353 8.17301 21.2378C9.38627 21.7404 10.6866 21.999 11.9998 21.999C14.652 21.999 17.1955 20.9455 19.0709 19.0701C20.9463 17.1947 21.9998 14.6512 21.9998 11.999C21.9998 10.6858 21.7412 9.38544 21.2386 8.17219C20.7361 6.95893 19.9995 5.85654 19.0709 4.92796C18.1423 3.99937 17.0399 3.26278 15.8267 2.76023C14.6134 2.25768 13.3131 1.99902 11.9998 1.99902ZM11.9998 8.38902C13.5698 9.39902 15.4198 9.99902 17.4198 9.99902C18.1998 9.99902 18.9498 9.90902 19.6698 9.73902C19.8798 10.449 19.9998 11.209 19.9998 11.999C19.9998 16.409 16.4098 19.999 11.9998 19.999C8.99985 19.999 6.38985 18.339 4.99985 15.889L6.74985 13.999V12.999C6.74985 12.6675 6.88154 12.3496 7.11596 12.1151C7.35038 11.8807 7.66833 11.749 7.99985 11.749C8.33137 11.749 8.64931 11.8807 8.88373 12.1151C9.11815 12.3496 9.24985 12.6675 9.24985 12.999V13.999H11.9998V8.38902ZM15.9998 11.749C15.6683 11.749 15.3504 11.8807 15.116 12.1151C14.8815 12.3496 14.7498 12.6675 14.7498 12.999C14.7498 13.3305 14.8815 13.6485 15.116 13.8829C15.3504 14.1173 15.6683 14.249 15.9998 14.249C16.3314 14.249 16.6493 14.1173 16.8837 13.8829C17.1182 13.6485 17.2498 13.3305 17.2498 12.999C17.2498 12.6675 17.1182 12.3496 16.8837 12.1151C16.6493 11.8807 16.3314 11.749 15.9998 11.749Z" fill="black"/>
</svg>
