<svg width="100" height="99" viewBox="0 0 100 99" fill="none" xmlns="http://www.w3.org/2000/svg">
<path d="M53.0518 26.2295C54.1809 26.386 55.2852 26.6198 56.3584 26.9277L70.0635 4.32227L62.4316 29.6367C63.3895 30.2356 64.3021 30.9 65.1631 31.624L86.8838 16.5439L69.6172 36.5654C70.247 37.4961 70.8122 38.4737 71.3086 39.4912L97.2793 34.5488L73.3623 45.8164C73.555 46.9124 73.6724 48.0339 73.7109 49.1758L99.4531 55.2266L73.0205 55.791C72.747 56.8949 72.397 57.9682 71.9766 59.0059L93.0283 75L68.6475 64.7637C67.9529 65.6525 67.1975 66.4913 66.3867 67.2734L79.1162 90.4512L61.0078 71.1855C60.0179 71.7138 58.9875 72.176 57.9209 72.5635L60.1221 98.9072L51.4141 73.9395C50.8565 73.9782 50.2939 74 49.7266 74C49.1589 74 48.5959 73.9782 48.0381 73.9395L39.3311 98.9072L41.5312 72.5635C40.4647 72.176 39.4342 71.7138 38.4443 71.1855L20.3369 90.4512L33.0654 67.2734C32.2549 66.4915 31.4991 65.6533 30.8047 64.7646L6.42578 75L27.4756 59.0068C27.0551 57.969 26.7052 56.8952 26.4316 55.791L0 55.2266L25.7412 49.1758C25.7797 48.034 25.8972 46.9124 26.0898 45.8164L2.17383 34.5488L28.1436 39.4912C28.6399 38.4737 29.2052 37.496 29.835 36.5654L12.5693 16.5439L34.2891 31.624C35.15 30.9 36.0627 30.2357 37.0205 29.6367L29.3896 4.32227L43.0938 26.9277C44.167 26.6198 45.2713 26.386 46.4004 26.2295L49.7266 0L53.0518 26.2295Z" fill="black"/>
</svg>
