<svg width="36" height="36" viewBox="0 0 36 36" fill="none" xmlns="http://www.w3.org/2000/svg">
<circle cx="18" cy="18" r="18" fill="white"/>
<path d="M19.3359 11.6298C19.6197 11.6694 19.8973 11.7285 20.1671 11.8063L23.6122 6.09251L21.6937 12.491C21.9345 12.6424 22.1639 12.8104 22.3804 12.9934L27.8404 9.18167L23.5 14.2423C23.6583 14.4776 23.8004 14.7247 23.9252 14.9819L30.4536 13.7326L24.4414 16.5807C24.4899 16.8577 24.5194 17.1412 24.5291 17.4298L31 18.9592L24.3555 19.1019C24.2868 19.3809 24.1988 19.6522 24.0931 19.9145L29.385 23.9572L23.2562 21.3698C23.0816 21.5945 22.8918 21.8065 22.6879 22.0042L25.8878 27.8626L21.3358 22.993C21.087 23.1265 20.828 23.2434 20.5599 23.3413L21.1132 30L18.9242 23.6891C18.784 23.6989 18.6426 23.7044 18.5 23.7044C18.3573 23.7044 18.2158 23.6989 18.0756 23.6891L15.8868 30L16.4399 23.3413C16.1718 23.2434 15.9128 23.1265 15.6639 22.993L11.1122 27.8626L14.3118 22.0042C14.1081 21.8065 13.9181 21.5947 13.7435 21.37L7.61528 23.9572L12.9067 19.9147C12.801 19.6524 12.713 19.381 12.6442 19.1019L6 18.9592L12.4707 17.4298C12.4804 17.1412 12.5099 16.8577 12.5583 16.5807L6.54645 13.7326L13.0746 14.9819C13.1993 14.7247 13.3414 14.4776 13.4998 14.2423L9.1596 9.18167L14.6194 12.9934C14.8358 12.8104 15.0653 12.6424 15.306 12.491L13.3878 6.09251L16.8327 11.8063C17.1025 11.7285 17.3801 11.6694 17.6639 11.6298L18.5 5L19.3359 11.6298Z" fill="black"/>
</svg>
