<svg width="24" height="24" viewBox="0 0 24 24" fill="none" xmlns="http://www.w3.org/2000/svg">
<path d="M17.2497 12.999C17.2497 13.689 16.6897 14.249 15.9997 14.249C15.3097 14.249 14.7497 13.689 14.7497 12.999C14.7497 12.309 15.3097 11.749 15.9997 11.749C16.6897 11.749 17.2497 12.309 17.2497 12.999ZM21.9997 11.999C21.9997 17.499 17.4997 21.999 11.9997 21.999H1.99974V11.999C1.99974 6.49902 6.49974 1.99902 11.9997 1.99902C17.4997 1.99902 21.9997 6.49902 21.9997 11.999ZM6.99974 17.999C8.40974 19.229 9.99974 19.999 11.9997 19.999C16.4097 19.999 19.9997 16.409 19.9997 11.999C19.9997 11.209 19.8797 10.449 19.6697 9.73902C18.9497 9.90902 18.1997 9.99902 17.4197 9.99902C15.4197 9.99902 13.5697 9.39902 11.9997 8.38902C11.9997 8.38902 10.5397 13.759 8.02974 12.999C7.36974 12.799 6.99974 13.309 6.99974 13.999" fill="black"/>
</svg>
